<svg xmlns="http://www.w3.org/2000/svg" width="375" viewBox="0 0 375 375" height="375" version="1.0"><defs><clipPath id="a"><path d="M 12.226562 78.390625 L 362.476562 78.390625 L 362.476562 296.640625 L 12.226562 296.640625 Z M 12.226562 78.390625"/></clipPath></defs><g clip-path="url(#a)"><path fill="#F34213" d="M 329.640625 231.765625 C 324.933594 231.765625 320.011719 227.351562 316.140625 219.652344 L 312.121094 211.65625 C 316.59375 204.078125 319.023438 195.960938 319.023438 187.515625 C 319.023438 179.070312 316.59375 170.949219 312.117188 163.375 L 316.136719 155.375 C 319.109375 149.464844 322.796875 145.390625 326.511719 143.902344 L 329.644531 142.648438 L 332.773438 143.902344 C 341.050781 147.214844 349.851562 163.625 349.851562 187.515625 C 349.851562 213.59375 339.203125 231.765625 329.640625 231.765625 Z M 187.351562 284.019531 C 136.585938 284.019531 90.835938 259.953125 71.847656 223.714844 C 94.222656 247.046875 137.554688 262.867188 187.351562 262.867188 C 237.144531 262.867188 280.476562 247.046875 302.855469 223.714844 C 283.867188 259.953125 238.113281 284.019531 187.351562 284.019531 Z M 58.558594 219.652344 C 54.691406 227.351562 49.769531 231.765625 45.058594 231.765625 C 35.5 231.765625 24.851562 213.59375 24.851562 187.515625 C 24.851562 163.625 33.648438 147.214844 41.925781 143.902344 L 45.058594 142.648438 L 48.1875 143.902344 C 51.90625 145.390625 55.589844 149.464844 58.5625 155.375 L 62.582031 163.375 C 58.105469 170.949219 55.679688 179.070312 55.679688 187.515625 C 55.679688 195.960938 58.105469 204.078125 62.578125 211.65625 Z M 45.058594 91.015625 C 49.933594 91.015625 53.898438 94.984375 53.898438 99.863281 C 53.898438 103.535156 51.679688 106.773438 48.246094 108.109375 L 45.054688 109.347656 L 41.871094 108.109375 C 38.4375 106.773438 36.214844 103.535156 36.214844 99.863281 C 36.214844 94.984375 40.179688 91.015625 45.058594 91.015625 Z M 159.566406 183.53125 C 159.566406 194.179688 150.941406 202.8125 140.304688 202.8125 C 129.667969 202.8125 121.042969 194.179688 121.042969 183.53125 C 121.042969 172.886719 129.667969 164.253906 140.304688 164.253906 C 150.941406 164.253906 159.566406 172.886719 159.566406 183.53125 Z M 253.65625 183.53125 C 253.65625 194.179688 245.03125 202.8125 234.398438 202.8125 C 223.757812 202.8125 215.136719 194.179688 215.136719 183.53125 C 215.136719 172.886719 223.757812 164.253906 234.398438 164.253906 C 245.03125 164.253906 253.65625 172.886719 253.65625 183.53125 Z M 187.351562 91.015625 C 238.113281 91.015625 283.867188 115.082031 302.855469 151.316406 C 280.476562 127.984375 237.144531 112.167969 187.351562 112.167969 C 137.554688 112.167969 94.222656 127.984375 71.847656 151.316406 C 90.835938 115.082031 136.585938 91.015625 187.351562 91.015625 Z M 329.640625 91.015625 C 334.519531 91.015625 338.484375 94.984375 338.484375 99.863281 C 338.484375 103.535156 336.265625 106.773438 332.832031 108.109375 L 329.644531 109.347656 L 326.453125 108.109375 C 323.023438 106.773438 320.804688 103.535156 320.804688 99.863281 C 320.804688 94.984375 324.769531 91.015625 329.640625 91.015625 Z M 341.429688 134.222656 L 341.429688 117.828125 C 347.425781 113.917969 351.113281 107.257812 351.113281 99.863281 C 351.113281 88.015625 341.480469 78.375 329.640625 78.375 C 317.804688 78.375 308.171875 88.015625 308.171875 99.863281 C 308.171875 107.257812 311.863281 113.917969 317.855469 117.828125 L 317.855469 134.207031 C 315.449219 135.742188 313.175781 137.746094 311.078125 140.1875 C 288.453125 102.824219 240.277344 78.375 187.351562 78.375 C 134.421875 78.375 86.246094 102.824219 63.621094 140.1875 C 61.523438 137.746094 59.253906 135.742188 56.84375 134.207031 L 56.84375 117.828125 C 62.839844 113.917969 66.527344 107.257812 66.527344 99.863281 C 66.527344 88.015625 56.894531 78.375 45.058594 78.375 C 33.21875 78.375 23.585938 88.015625 23.585938 99.863281 C 23.585938 107.257812 27.273438 113.917969 33.269531 117.828125 L 33.269531 134.222656 C 20.691406 142.300781 12.21875 163.285156 12.21875 187.515625 C 12.21875 219.417969 26.644531 244.40625 45.058594 244.40625 C 51.925781 244.40625 58.300781 241.082031 63.632812 234.859375 C 86.257812 272.214844 134.425781 296.660156 187.351562 296.660156 C 240.273438 296.660156 288.445312 272.214844 311.070312 234.859375 C 316.402344 241.082031 322.773438 244.40625 329.640625 244.40625 C 348.058594 244.40625 362.480469 219.417969 362.480469 187.515625 C 362.480469 163.285156 354.007812 142.300781 341.429688 134.222656"/></g></svg>